<svg width="36" height="35" viewBox="0 0 36 35" fill="none" xmlns="http://www.w3.org/2000/svg">
<rect width="35.2959" height="34.5976" rx="17.2988" fill="#5E71FE"/>
<path d="M17.0059 10C18.5828 10 19.9045 10.1952 20.9707 10.5857C22.037 10.9762 22.8855 11.5093 23.5163 12.1851C24.1471 12.8459 24.5976 13.6118 24.8679 14.4829C25.1533 15.354 25.2959 16.27 25.2959 17.2312C25.2959 18.2074 25.1457 19.1385 24.8454 20.0246C24.545 20.9106 24.0644 21.6991 23.4037 22.3899C22.7579 23.0658 21.9094 23.6064 20.8581 24.0119C19.8068 24.4024 18.5228 24.5976 17.0059 24.5976H10V10H17.0059ZM12.5681 22.3449H16.9834C18.0947 22.3449 19.0184 22.2022 19.7543 21.9169C20.4902 21.6315 21.0759 21.2485 21.5114 20.768C21.9469 20.2724 22.2548 19.7242 22.435 19.1235C22.6152 18.5078 22.7053 17.877 22.7053 17.2312C22.7053 16.5854 22.6152 15.9697 22.435 15.384C22.2548 14.7833 21.9469 14.2501 21.5114 13.7846C21.0759 13.304 20.4902 12.9285 19.7543 12.6582C19.0184 12.3729 18.0947 12.2302 16.9834 12.2302H12.5681V22.3449Z" fill="#F4F4F4"/>
</svg>
